<mxfile host="app.diagrams.net" modified="2023-04-21T03:55:12.911Z" agent="Mozilla/5.0 (Windows NT 10.0; Win64; x64) AppleWebKit/537.36 (KHTML, like Gecko) Chrome/111.0.0.0 Safari/537.36" etag="0TbYtAA61_sHmD2tSCE3" version="21.2.1" type="github">
  <diagram name="谓词下推" id="cbsx9Czcc-8pzS0EADx3">
    <mxGraphModel dx="4097" dy="2023" grid="1" gridSize="10" guides="1" tooltips="1" connect="1" arrows="1" fold="1" page="1" pageScale="1" pageWidth="827" pageHeight="1169" math="0" shadow="0">
      <root>
        <mxCell id="0" />
        <mxCell id="1" parent="0" />
        <mxCell id="pJjKv-Byt6Ofe4KoQBYE-75" value="" style="rounded=1;whiteSpace=wrap;html=1;strokeColor=#b4a996;fillColor=#c4dff6;" vertex="1" parent="1">
          <mxGeometry x="1052.25" y="310" width="157.5" height="60" as="geometry" />
        </mxCell>
        <mxCell id="pJjKv-Byt6Ofe4KoQBYE-1" value="谓词下推可以提前过滤Join的输入内容，从而提升Join的性能，主要包括了 Where 和 On 子句的谓词。" style="text;html=1;strokeColor=none;fillColor=none;align=left;verticalAlign=middle;whiteSpace=wrap;rounded=0;" vertex="1" parent="1">
          <mxGeometry x="10" y="10" width="800" height="60" as="geometry" />
        </mxCell>
        <mxCell id="pJjKv-Byt6Ofe4KoQBYE-3" value="其中 Where 子句可以直接下推&lt;br&gt;SELECT * FROM&lt;br&gt;&amp;nbsp; &amp;nbsp; A&amp;nbsp;LEFT OUTER JOIN B ON A.Key1 = B.Key1&amp;nbsp;&lt;br&gt;&amp;nbsp; &amp;nbsp; &amp;nbsp; &amp;nbsp;LEFT OUTER JOIN&amp;nbsp;C On B.Key2 = C.Key2&amp;nbsp;&lt;br&gt;WHERE A.Key1 = 1 AND B.Key1 = 2 AND C.Key2 = 3;" style="text;whiteSpace=wrap;html=1;" vertex="1" parent="1">
          <mxGeometry x="50" y="60" width="360" height="90" as="geometry" />
        </mxCell>
        <mxCell id="pJjKv-Byt6Ofe4KoQBYE-4" value="" style="rounded=1;whiteSpace=wrap;html=1;strokeColor=#b4a996;fillColor=#56a0d3;" vertex="1" parent="1">
          <mxGeometry x="155" y="180" width="267.5" height="60" as="geometry" />
        </mxCell>
        <mxCell id="pJjKv-Byt6Ofe4KoQBYE-5" value="&lt;font style=&quot;&quot;&gt;&lt;span style=&quot;font-size: 24px;&quot;&gt;Filter&lt;/span&gt;&lt;br&gt;&lt;font style=&quot;font-size: 12px;&quot;&gt;(A.Key1 = 1 AND B.Key1 = 2 AND C.Key2 = 3)&lt;/font&gt;&lt;br&gt;&lt;/font&gt;" style="text;html=1;strokeColor=none;fillColor=none;align=center;verticalAlign=middle;whiteSpace=wrap;rounded=0;" vertex="1" parent="1">
          <mxGeometry x="155" y="180" width="265" height="60" as="geometry" />
        </mxCell>
        <mxCell id="pJjKv-Byt6Ofe4KoQBYE-6" value="" style="rounded=1;whiteSpace=wrap;html=1;strokeColor=#b4a996;fillColor=#56a0d3;" vertex="1" parent="1">
          <mxGeometry x="215" y="290" width="145" height="60" as="geometry" />
        </mxCell>
        <mxCell id="pJjKv-Byt6Ofe4KoQBYE-7" value="&lt;font style=&quot;&quot;&gt;&lt;span style=&quot;font-size: 24px;&quot;&gt;Left Join&lt;br&gt;&lt;/span&gt;(B.Key2 = C.Key2)&lt;br&gt;&lt;/font&gt;" style="text;html=1;strokeColor=none;fillColor=none;align=center;verticalAlign=middle;whiteSpace=wrap;rounded=0;" vertex="1" parent="1">
          <mxGeometry x="227.5" y="290" width="120" height="60" as="geometry" />
        </mxCell>
        <mxCell id="pJjKv-Byt6Ofe4KoQBYE-10" value="" style="rounded=1;whiteSpace=wrap;html=1;strokeColor=#b4a996;fillColor=#56a0d3;" vertex="1" parent="1">
          <mxGeometry x="317.5" y="410" width="145" height="60" as="geometry" />
        </mxCell>
        <mxCell id="pJjKv-Byt6Ofe4KoQBYE-11" value="&lt;font style=&quot;&quot;&gt;&lt;span style=&quot;font-size: 24px;&quot;&gt;Table C&lt;/span&gt;&lt;br&gt;&lt;/font&gt;" style="text;html=1;strokeColor=none;fillColor=none;align=center;verticalAlign=middle;whiteSpace=wrap;rounded=0;" vertex="1" parent="1">
          <mxGeometry x="330" y="410" width="120" height="60" as="geometry" />
        </mxCell>
        <mxCell id="pJjKv-Byt6Ofe4KoQBYE-12" value="" style="endArrow=classic;html=1;rounded=0;exitX=0.5;exitY=0;exitDx=0;exitDy=0;entryX=0.5;entryY=1;entryDx=0;entryDy=0;" edge="1" parent="1" source="pJjKv-Byt6Ofe4KoQBYE-45" target="pJjKv-Byt6Ofe4KoQBYE-7">
          <mxGeometry width="50" height="50" relative="1" as="geometry">
            <mxPoint x="185" y="410" as="sourcePoint" />
            <mxPoint x="555" y="320" as="targetPoint" />
          </mxGeometry>
        </mxCell>
        <mxCell id="pJjKv-Byt6Ofe4KoQBYE-13" value="" style="endArrow=classic;html=1;rounded=0;exitX=0.5;exitY=0;exitDx=0;exitDy=0;entryX=0.5;entryY=1;entryDx=0;entryDy=0;" edge="1" parent="1" source="pJjKv-Byt6Ofe4KoQBYE-11" target="pJjKv-Byt6Ofe4KoQBYE-7">
          <mxGeometry width="50" height="50" relative="1" as="geometry">
            <mxPoint x="195" y="420" as="sourcePoint" />
            <mxPoint x="298" y="360" as="targetPoint" />
          </mxGeometry>
        </mxCell>
        <mxCell id="pJjKv-Byt6Ofe4KoQBYE-14" value="" style="endArrow=classic;html=1;rounded=0;entryX=0.5;entryY=1;entryDx=0;entryDy=0;" edge="1" parent="1" source="pJjKv-Byt6Ofe4KoQBYE-7" target="pJjKv-Byt6Ofe4KoQBYE-5">
          <mxGeometry width="50" height="50" relative="1" as="geometry">
            <mxPoint x="400" y="420" as="sourcePoint" />
            <mxPoint x="298" y="360" as="targetPoint" />
          </mxGeometry>
        </mxCell>
        <mxCell id="pJjKv-Byt6Ofe4KoQBYE-15" value="" style="endArrow=classic;html=1;rounded=0;exitX=0.5;exitY=0;exitDx=0;exitDy=0;" edge="1" parent="1" source="pJjKv-Byt6Ofe4KoQBYE-5">
          <mxGeometry width="50" height="50" relative="1" as="geometry">
            <mxPoint x="410" y="430" as="sourcePoint" />
            <mxPoint x="288" y="140" as="targetPoint" />
          </mxGeometry>
        </mxCell>
        <mxCell id="pJjKv-Byt6Ofe4KoQBYE-44" value="" style="rounded=1;whiteSpace=wrap;html=1;strokeColor=#b4a996;fillColor=#56a0d3;" vertex="1" parent="1">
          <mxGeometry x="112.5" y="410" width="145" height="60" as="geometry" />
        </mxCell>
        <mxCell id="pJjKv-Byt6Ofe4KoQBYE-45" value="&lt;font style=&quot;&quot;&gt;&lt;span style=&quot;font-size: 24px;&quot;&gt;Left Join&lt;br&gt;&lt;/span&gt;(A.Key1 = B.Key1)&lt;br&gt;&lt;/font&gt;" style="text;html=1;strokeColor=none;fillColor=none;align=center;verticalAlign=middle;whiteSpace=wrap;rounded=0;" vertex="1" parent="1">
          <mxGeometry x="125" y="410" width="120" height="60" as="geometry" />
        </mxCell>
        <mxCell id="pJjKv-Byt6Ofe4KoQBYE-46" value="" style="rounded=1;whiteSpace=wrap;html=1;strokeColor=#b4a996;fillColor=#56a0d3;" vertex="1" parent="1">
          <mxGeometry x="10" y="530" width="145" height="60" as="geometry" />
        </mxCell>
        <mxCell id="pJjKv-Byt6Ofe4KoQBYE-47" value="&lt;font style=&quot;&quot;&gt;&lt;span style=&quot;font-size: 24px;&quot;&gt;Table A&lt;/span&gt;&lt;br&gt;&lt;/font&gt;" style="text;html=1;strokeColor=none;fillColor=none;align=center;verticalAlign=middle;whiteSpace=wrap;rounded=0;" vertex="1" parent="1">
          <mxGeometry x="22.5" y="530" width="120" height="60" as="geometry" />
        </mxCell>
        <mxCell id="pJjKv-Byt6Ofe4KoQBYE-48" value="" style="rounded=1;whiteSpace=wrap;html=1;strokeColor=#b4a996;fillColor=#56a0d3;" vertex="1" parent="1">
          <mxGeometry x="215" y="530" width="145" height="60" as="geometry" />
        </mxCell>
        <mxCell id="pJjKv-Byt6Ofe4KoQBYE-49" value="&lt;font style=&quot;&quot;&gt;&lt;span style=&quot;font-size: 24px;&quot;&gt;Table B&lt;/span&gt;&lt;br&gt;&lt;/font&gt;" style="text;html=1;strokeColor=none;fillColor=none;align=center;verticalAlign=middle;whiteSpace=wrap;rounded=0;" vertex="1" parent="1">
          <mxGeometry x="227.5" y="530" width="120" height="60" as="geometry" />
        </mxCell>
        <mxCell id="pJjKv-Byt6Ofe4KoQBYE-50" value="" style="endArrow=classic;html=1;rounded=0;exitX=0.5;exitY=0;exitDx=0;exitDy=0;entryX=0.5;entryY=1;entryDx=0;entryDy=0;" edge="1" parent="1" source="pJjKv-Byt6Ofe4KoQBYE-47" target="pJjKv-Byt6Ofe4KoQBYE-45">
          <mxGeometry width="50" height="50" relative="1" as="geometry">
            <mxPoint x="402.5" y="490" as="sourcePoint" />
            <mxPoint x="452.5" y="440" as="targetPoint" />
          </mxGeometry>
        </mxCell>
        <mxCell id="pJjKv-Byt6Ofe4KoQBYE-51" value="" style="endArrow=classic;html=1;rounded=0;exitX=0.5;exitY=0;exitDx=0;exitDy=0;entryX=0.5;entryY=1;entryDx=0;entryDy=0;" edge="1" parent="1" source="pJjKv-Byt6Ofe4KoQBYE-49" target="pJjKv-Byt6Ofe4KoQBYE-45">
          <mxGeometry width="50" height="50" relative="1" as="geometry">
            <mxPoint x="92.5" y="540" as="sourcePoint" />
            <mxPoint x="195.5" y="480" as="targetPoint" />
          </mxGeometry>
        </mxCell>
        <mxCell id="pJjKv-Byt6Ofe4KoQBYE-52" value="分别下推(A.Key1 = 1 AND B.Key1 = 2) 和 (C.Key2 = 3)&lt;br&gt;同时满足 Left Ouer Join 到 Inner Join 的转换" style="text;whiteSpace=wrap;html=1;align=center;" vertex="1" parent="1">
          <mxGeometry x="475" y="370" width="310" height="40" as="geometry" />
        </mxCell>
        <mxCell id="pJjKv-Byt6Ofe4KoQBYE-56" value="&lt;font style=&quot;&quot;&gt;&lt;span style=&quot;font-size: 24px;&quot;&gt;Filter&lt;br&gt;&lt;/span&gt;(C.Key2=3)&lt;br&gt;&lt;/font&gt;" style="text;html=1;strokeColor=none;fillColor=none;align=center;verticalAlign=middle;whiteSpace=wrap;rounded=0;" vertex="1" parent="1">
          <mxGeometry x="1056" y="310" width="150" height="60" as="geometry" />
        </mxCell>
        <mxCell id="pJjKv-Byt6Ofe4KoQBYE-57" value="" style="rounded=1;whiteSpace=wrap;html=1;strokeColor=#b4a996;fillColor=#56a0d3;" vertex="1" parent="1">
          <mxGeometry x="1058.5" y="420" width="145" height="60" as="geometry" />
        </mxCell>
        <mxCell id="pJjKv-Byt6Ofe4KoQBYE-58" value="&lt;font style=&quot;&quot;&gt;&lt;span style=&quot;font-size: 24px;&quot;&gt;Table C&lt;/span&gt;&lt;br&gt;&lt;/font&gt;" style="text;html=1;strokeColor=none;fillColor=none;align=center;verticalAlign=middle;whiteSpace=wrap;rounded=0;" vertex="1" parent="1">
          <mxGeometry x="1071" y="420" width="120" height="60" as="geometry" />
        </mxCell>
        <mxCell id="pJjKv-Byt6Ofe4KoQBYE-59" value="" style="endArrow=classic;html=1;rounded=0;exitX=0.5;exitY=0;exitDx=0;exitDy=0;entryX=0.5;entryY=1;entryDx=0;entryDy=0;" edge="1" parent="1" source="pJjKv-Byt6Ofe4KoQBYE-64" target="pJjKv-Byt6Ofe4KoQBYE-74">
          <mxGeometry width="50" height="50" relative="1" as="geometry">
            <mxPoint x="926" y="420" as="sourcePoint" />
            <mxPoint x="1296" y="330" as="targetPoint" />
          </mxGeometry>
        </mxCell>
        <mxCell id="pJjKv-Byt6Ofe4KoQBYE-60" value="" style="endArrow=classic;html=1;rounded=0;exitX=0.5;exitY=0;exitDx=0;exitDy=0;entryX=0.5;entryY=1;entryDx=0;entryDy=0;" edge="1" parent="1" source="pJjKv-Byt6Ofe4KoQBYE-58" target="pJjKv-Byt6Ofe4KoQBYE-56">
          <mxGeometry width="50" height="50" relative="1" as="geometry">
            <mxPoint x="936" y="430" as="sourcePoint" />
            <mxPoint x="1039" y="370" as="targetPoint" />
          </mxGeometry>
        </mxCell>
        <mxCell id="pJjKv-Byt6Ofe4KoQBYE-61" value="" style="endArrow=classic;html=1;rounded=0;entryX=0.5;entryY=1;entryDx=0;entryDy=0;exitX=0.5;exitY=0;exitDx=0;exitDy=0;" edge="1" parent="1" source="pJjKv-Byt6Ofe4KoQBYE-56" target="pJjKv-Byt6Ofe4KoQBYE-72">
          <mxGeometry width="50" height="50" relative="1" as="geometry">
            <mxPoint x="1141" y="430" as="sourcePoint" />
            <mxPoint x="1028.5" y="250" as="targetPoint" />
          </mxGeometry>
        </mxCell>
        <mxCell id="pJjKv-Byt6Ofe4KoQBYE-63" value="" style="rounded=1;whiteSpace=wrap;html=1;strokeColor=#b4a996;fillColor=#56a0d3;" vertex="1" parent="1">
          <mxGeometry x="853.5" y="420" width="145" height="60" as="geometry" />
        </mxCell>
        <mxCell id="pJjKv-Byt6Ofe4KoQBYE-64" value="&lt;font style=&quot;&quot;&gt;&lt;span style=&quot;font-size: 24px;&quot;&gt;Left Join&lt;br&gt;&lt;/span&gt;(A.Key1 = B.Key1)&lt;br&gt;&lt;/font&gt;" style="text;html=1;strokeColor=none;fillColor=none;align=center;verticalAlign=middle;whiteSpace=wrap;rounded=0;" vertex="1" parent="1">
          <mxGeometry x="866" y="420" width="120" height="60" as="geometry" />
        </mxCell>
        <mxCell id="pJjKv-Byt6Ofe4KoQBYE-65" value="" style="rounded=1;whiteSpace=wrap;html=1;strokeColor=#b4a996;fillColor=#56a0d3;" vertex="1" parent="1">
          <mxGeometry x="751" y="540" width="145" height="60" as="geometry" />
        </mxCell>
        <mxCell id="pJjKv-Byt6Ofe4KoQBYE-66" value="&lt;font style=&quot;&quot;&gt;&lt;span style=&quot;font-size: 24px;&quot;&gt;Table A&lt;/span&gt;&lt;br&gt;&lt;/font&gt;" style="text;html=1;strokeColor=none;fillColor=none;align=center;verticalAlign=middle;whiteSpace=wrap;rounded=0;" vertex="1" parent="1">
          <mxGeometry x="763.5" y="540" width="120" height="60" as="geometry" />
        </mxCell>
        <mxCell id="pJjKv-Byt6Ofe4KoQBYE-67" value="" style="rounded=1;whiteSpace=wrap;html=1;strokeColor=#b4a996;fillColor=#56a0d3;" vertex="1" parent="1">
          <mxGeometry x="956" y="540" width="145" height="60" as="geometry" />
        </mxCell>
        <mxCell id="pJjKv-Byt6Ofe4KoQBYE-68" value="&lt;font style=&quot;&quot;&gt;&lt;span style=&quot;font-size: 24px;&quot;&gt;Table B&lt;/span&gt;&lt;br&gt;&lt;/font&gt;" style="text;html=1;strokeColor=none;fillColor=none;align=center;verticalAlign=middle;whiteSpace=wrap;rounded=0;" vertex="1" parent="1">
          <mxGeometry x="968.5" y="540" width="120" height="60" as="geometry" />
        </mxCell>
        <mxCell id="pJjKv-Byt6Ofe4KoQBYE-69" value="" style="endArrow=classic;html=1;rounded=0;exitX=0.5;exitY=0;exitDx=0;exitDy=0;entryX=0.5;entryY=1;entryDx=0;entryDy=0;" edge="1" parent="1" source="pJjKv-Byt6Ofe4KoQBYE-66" target="pJjKv-Byt6Ofe4KoQBYE-64">
          <mxGeometry width="50" height="50" relative="1" as="geometry">
            <mxPoint x="1143.5" y="500" as="sourcePoint" />
            <mxPoint x="1193.5" y="450" as="targetPoint" />
          </mxGeometry>
        </mxCell>
        <mxCell id="pJjKv-Byt6Ofe4KoQBYE-70" value="" style="endArrow=classic;html=1;rounded=0;exitX=0.5;exitY=0;exitDx=0;exitDy=0;entryX=0.5;entryY=1;entryDx=0;entryDy=0;" edge="1" parent="1" source="pJjKv-Byt6Ofe4KoQBYE-68" target="pJjKv-Byt6Ofe4KoQBYE-64">
          <mxGeometry width="50" height="50" relative="1" as="geometry">
            <mxPoint x="833.5" y="550" as="sourcePoint" />
            <mxPoint x="936.5" y="490" as="targetPoint" />
          </mxGeometry>
        </mxCell>
        <mxCell id="pJjKv-Byt6Ofe4KoQBYE-71" value="" style="rounded=1;whiteSpace=wrap;html=1;strokeColor=#b4a996;fillColor=#c4dff6;" vertex="1" parent="1">
          <mxGeometry x="956" y="190" width="145" height="60" as="geometry" />
        </mxCell>
        <mxCell id="pJjKv-Byt6Ofe4KoQBYE-72" value="&lt;font style=&quot;&quot;&gt;&lt;span style=&quot;font-size: 24px;&quot;&gt;Inner Join&lt;/span&gt;&lt;br&gt;&lt;/font&gt;" style="text;html=1;strokeColor=none;fillColor=none;align=center;verticalAlign=middle;whiteSpace=wrap;rounded=0;" vertex="1" parent="1">
          <mxGeometry x="968.5" y="190" width="120" height="60" as="geometry" />
        </mxCell>
        <mxCell id="pJjKv-Byt6Ofe4KoQBYE-73" value="" style="rounded=1;whiteSpace=wrap;html=1;strokeColor=#b4a996;fillColor=#c4dff6;" vertex="1" parent="1">
          <mxGeometry x="847.25" y="310" width="157.5" height="60" as="geometry" />
        </mxCell>
        <mxCell id="pJjKv-Byt6Ofe4KoQBYE-74" value="&lt;font style=&quot;&quot;&gt;&lt;span style=&quot;font-size: 24px;&quot;&gt;Filter&lt;br&gt;&lt;/span&gt;(A.Key1=1 AND B.Key1=2)&lt;br&gt;&lt;/font&gt;" style="text;html=1;strokeColor=none;fillColor=none;align=center;verticalAlign=middle;whiteSpace=wrap;rounded=0;" vertex="1" parent="1">
          <mxGeometry x="846" y="310" width="160" height="60" as="geometry" />
        </mxCell>
        <mxCell id="pJjKv-Byt6Ofe4KoQBYE-76" value="" style="endArrow=classic;html=1;rounded=0;entryX=0.5;entryY=1;entryDx=0;entryDy=0;exitX=0.5;exitY=0;exitDx=0;exitDy=0;" edge="1" parent="1" source="pJjKv-Byt6Ofe4KoQBYE-74" target="pJjKv-Byt6Ofe4KoQBYE-72">
          <mxGeometry width="50" height="50" relative="1" as="geometry">
            <mxPoint x="1141" y="320" as="sourcePoint" />
            <mxPoint x="1038.5" y="260" as="targetPoint" />
          </mxGeometry>
        </mxCell>
        <mxCell id="pJjKv-Byt6Ofe4KoQBYE-78" value="" style="endArrow=classic;html=1;rounded=0;exitX=0.5;exitY=0;exitDx=0;exitDy=0;" edge="1" parent="1">
          <mxGeometry width="50" height="50" relative="1" as="geometry">
            <mxPoint x="1028.3999999999999" y="190" as="sourcePoint" />
            <mxPoint x="1028.3999999999999" y="150" as="targetPoint" />
          </mxGeometry>
        </mxCell>
        <mxCell id="pJjKv-Byt6Ofe4KoQBYE-79" value="" style="rounded=1;whiteSpace=wrap;html=1;strokeColor=#b4a996;fillColor=#c4dff6;" vertex="1" parent="1">
          <mxGeometry x="1896" y="310" width="157.5" height="60" as="geometry" />
        </mxCell>
        <mxCell id="pJjKv-Byt6Ofe4KoQBYE-80" value="&lt;font style=&quot;&quot;&gt;&lt;span style=&quot;font-size: 24px;&quot;&gt;Filter&lt;br&gt;&lt;/span&gt;(C.Key2=3)&lt;br&gt;&lt;/font&gt;" style="text;html=1;strokeColor=none;fillColor=none;align=center;verticalAlign=middle;whiteSpace=wrap;rounded=0;" vertex="1" parent="1">
          <mxGeometry x="1912.25" y="310" width="125" height="60" as="geometry" />
        </mxCell>
        <mxCell id="pJjKv-Byt6Ofe4KoQBYE-81" value="" style="rounded=1;whiteSpace=wrap;html=1;strokeColor=#b4a996;fillColor=#56a0d3;" vertex="1" parent="1">
          <mxGeometry x="1902.25" y="430" width="145" height="60" as="geometry" />
        </mxCell>
        <mxCell id="pJjKv-Byt6Ofe4KoQBYE-82" value="&lt;font style=&quot;&quot;&gt;&lt;span style=&quot;font-size: 24px;&quot;&gt;Table C&lt;/span&gt;&lt;br&gt;&lt;/font&gt;" style="text;html=1;strokeColor=none;fillColor=none;align=center;verticalAlign=middle;whiteSpace=wrap;rounded=0;" vertex="1" parent="1">
          <mxGeometry x="1914.75" y="430" width="120" height="60" as="geometry" />
        </mxCell>
        <mxCell id="pJjKv-Byt6Ofe4KoQBYE-83" value="" style="endArrow=classic;html=1;rounded=0;exitX=0.5;exitY=0;exitDx=0;exitDy=0;entryX=0.5;entryY=1;entryDx=0;entryDy=0;" edge="1" parent="1" source="pJjKv-Byt6Ofe4KoQBYE-102" target="pJjKv-Byt6Ofe4KoQBYE-106">
          <mxGeometry width="50" height="50" relative="1" as="geometry">
            <mxPoint x="1677.25" y="420" as="sourcePoint" />
            <mxPoint x="1677.25" y="370" as="targetPoint" />
          </mxGeometry>
        </mxCell>
        <mxCell id="pJjKv-Byt6Ofe4KoQBYE-84" value="" style="endArrow=classic;html=1;rounded=0;exitX=0.5;exitY=0;exitDx=0;exitDy=0;entryX=0.5;entryY=1;entryDx=0;entryDy=0;" edge="1" parent="1" source="pJjKv-Byt6Ofe4KoQBYE-82" target="pJjKv-Byt6Ofe4KoQBYE-80">
          <mxGeometry width="50" height="50" relative="1" as="geometry">
            <mxPoint x="1687.25" y="430" as="sourcePoint" />
            <mxPoint x="1790.25" y="370" as="targetPoint" />
          </mxGeometry>
        </mxCell>
        <mxCell id="pJjKv-Byt6Ofe4KoQBYE-85" value="" style="endArrow=classic;html=1;rounded=0;entryX=0.5;entryY=1;entryDx=0;entryDy=0;exitX=0.5;exitY=0;exitDx=0;exitDy=0;" edge="1" parent="1" source="pJjKv-Byt6Ofe4KoQBYE-80" target="pJjKv-Byt6Ofe4KoQBYE-95">
          <mxGeometry width="50" height="50" relative="1" as="geometry">
            <mxPoint x="1892.25" y="430" as="sourcePoint" />
            <mxPoint x="1779.75" y="250" as="targetPoint" />
          </mxGeometry>
        </mxCell>
        <mxCell id="pJjKv-Byt6Ofe4KoQBYE-88" value="" style="rounded=1;whiteSpace=wrap;html=1;strokeColor=#b4a996;fillColor=#56a0d3;" vertex="1" parent="1">
          <mxGeometry x="1502.25" y="540" width="145" height="60" as="geometry" />
        </mxCell>
        <mxCell id="pJjKv-Byt6Ofe4KoQBYE-89" value="&lt;font style=&quot;&quot;&gt;&lt;span style=&quot;font-size: 24px;&quot;&gt;Table A&lt;/span&gt;&lt;br&gt;&lt;/font&gt;" style="text;html=1;strokeColor=none;fillColor=none;align=center;verticalAlign=middle;whiteSpace=wrap;rounded=0;" vertex="1" parent="1">
          <mxGeometry x="1514.75" y="540" width="120" height="60" as="geometry" />
        </mxCell>
        <mxCell id="pJjKv-Byt6Ofe4KoQBYE-90" value="" style="rounded=1;whiteSpace=wrap;html=1;strokeColor=#b4a996;fillColor=#56a0d3;" vertex="1" parent="1">
          <mxGeometry x="1707.25" y="540" width="145" height="60" as="geometry" />
        </mxCell>
        <mxCell id="pJjKv-Byt6Ofe4KoQBYE-91" value="&lt;font style=&quot;&quot;&gt;&lt;span style=&quot;font-size: 24px;&quot;&gt;Table B&lt;/span&gt;&lt;br&gt;&lt;/font&gt;" style="text;html=1;strokeColor=none;fillColor=none;align=center;verticalAlign=middle;whiteSpace=wrap;rounded=0;" vertex="1" parent="1">
          <mxGeometry x="1719.75" y="540" width="120" height="60" as="geometry" />
        </mxCell>
        <mxCell id="pJjKv-Byt6Ofe4KoQBYE-92" value="" style="endArrow=classic;html=1;rounded=0;exitX=0.5;exitY=0;exitDx=0;exitDy=0;entryX=0.5;entryY=1;entryDx=0;entryDy=0;" edge="1" parent="1" source="pJjKv-Byt6Ofe4KoQBYE-89" target="pJjKv-Byt6Ofe4KoQBYE-102">
          <mxGeometry width="50" height="50" relative="1" as="geometry">
            <mxPoint x="1894.75" y="500" as="sourcePoint" />
            <mxPoint x="1677.25" y="480" as="targetPoint" />
          </mxGeometry>
        </mxCell>
        <mxCell id="pJjKv-Byt6Ofe4KoQBYE-93" value="" style="endArrow=classic;html=1;rounded=0;exitX=0.5;exitY=0;exitDx=0;exitDy=0;entryX=0.5;entryY=1;entryDx=0;entryDy=0;" edge="1" parent="1" source="pJjKv-Byt6Ofe4KoQBYE-91" target="pJjKv-Byt6Ofe4KoQBYE-104">
          <mxGeometry width="50" height="50" relative="1" as="geometry">
            <mxPoint x="1584.75" y="550" as="sourcePoint" />
            <mxPoint x="1677.25" y="480" as="targetPoint" />
          </mxGeometry>
        </mxCell>
        <mxCell id="pJjKv-Byt6Ofe4KoQBYE-94" value="" style="rounded=1;whiteSpace=wrap;html=1;strokeColor=#b4a996;fillColor=#c4dff6;" vertex="1" parent="1">
          <mxGeometry x="1707.25" y="190" width="145" height="60" as="geometry" />
        </mxCell>
        <mxCell id="pJjKv-Byt6Ofe4KoQBYE-95" value="&lt;font style=&quot;&quot;&gt;&lt;span style=&quot;font-size: 24px;&quot;&gt;Inner Join&lt;/span&gt;&lt;br&gt;&lt;/font&gt;" style="text;html=1;strokeColor=none;fillColor=none;align=center;verticalAlign=middle;whiteSpace=wrap;rounded=0;" vertex="1" parent="1">
          <mxGeometry x="1719.75" y="190" width="120" height="60" as="geometry" />
        </mxCell>
        <mxCell id="pJjKv-Byt6Ofe4KoQBYE-98" value="" style="endArrow=classic;html=1;rounded=0;entryX=0.5;entryY=1;entryDx=0;entryDy=0;exitX=0.5;exitY=0;exitDx=0;exitDy=0;" edge="1" parent="1" target="pJjKv-Byt6Ofe4KoQBYE-95">
          <mxGeometry width="50" height="50" relative="1" as="geometry">
            <mxPoint x="1677.25" y="310" as="sourcePoint" />
            <mxPoint x="1789.75" y="260" as="targetPoint" />
          </mxGeometry>
        </mxCell>
        <mxCell id="pJjKv-Byt6Ofe4KoQBYE-99" value="" style="endArrow=classic;html=1;rounded=0;exitX=0.5;exitY=0;exitDx=0;exitDy=0;" edge="1" parent="1">
          <mxGeometry width="50" height="50" relative="1" as="geometry">
            <mxPoint x="1779.6499999999999" y="190" as="sourcePoint" />
            <mxPoint x="1779.6499999999999" y="150" as="targetPoint" />
          </mxGeometry>
        </mxCell>
        <mxCell id="pJjKv-Byt6Ofe4KoQBYE-100" value="继续下推(A.Key1 = 1) 和 (B.Key1 = 2)&lt;br&gt;同时满足 Left Ouer Join 到 Inner Join 的转换" style="text;whiteSpace=wrap;html=1;align=center;" vertex="1" parent="1">
          <mxGeometry x="1202.25" y="370" width="310" height="40" as="geometry" />
        </mxCell>
        <mxCell id="pJjKv-Byt6Ofe4KoQBYE-101" value="" style="rounded=1;whiteSpace=wrap;html=1;strokeColor=#b4a996;fillColor=#c4dff6;" vertex="1" parent="1">
          <mxGeometry x="1496" y="430" width="157.5" height="60" as="geometry" />
        </mxCell>
        <mxCell id="pJjKv-Byt6Ofe4KoQBYE-102" value="&lt;font style=&quot;&quot;&gt;&lt;span style=&quot;font-size: 24px;&quot;&gt;Filter&lt;br&gt;&lt;/span&gt;(A.Key1=1)&lt;br&gt;&lt;/font&gt;" style="text;html=1;strokeColor=none;fillColor=none;align=center;verticalAlign=middle;whiteSpace=wrap;rounded=0;" vertex="1" parent="1">
          <mxGeometry x="1512.25" y="430" width="125" height="60" as="geometry" />
        </mxCell>
        <mxCell id="pJjKv-Byt6Ofe4KoQBYE-103" value="" style="rounded=1;whiteSpace=wrap;html=1;strokeColor=#b4a996;fillColor=#c4dff6;" vertex="1" parent="1">
          <mxGeometry x="1701" y="430" width="157.5" height="60" as="geometry" />
        </mxCell>
        <mxCell id="pJjKv-Byt6Ofe4KoQBYE-104" value="&lt;font style=&quot;&quot;&gt;&lt;span style=&quot;font-size: 24px;&quot;&gt;Filter&lt;br&gt;&lt;/span&gt;(B.Key1=2)&lt;br&gt;&lt;/font&gt;" style="text;html=1;strokeColor=none;fillColor=none;align=center;verticalAlign=middle;whiteSpace=wrap;rounded=0;" vertex="1" parent="1">
          <mxGeometry x="1717.25" y="430" width="125" height="60" as="geometry" />
        </mxCell>
        <mxCell id="pJjKv-Byt6Ofe4KoQBYE-105" value="" style="rounded=1;whiteSpace=wrap;html=1;strokeColor=#b4a996;fillColor=#c4dff6;" vertex="1" parent="1">
          <mxGeometry x="1602.25" y="310" width="145" height="60" as="geometry" />
        </mxCell>
        <mxCell id="pJjKv-Byt6Ofe4KoQBYE-106" value="&lt;font style=&quot;&quot;&gt;&lt;span style=&quot;font-size: 24px;&quot;&gt;Inner Join&lt;/span&gt;&lt;br&gt;&lt;/font&gt;" style="text;html=1;strokeColor=none;fillColor=none;align=center;verticalAlign=middle;whiteSpace=wrap;rounded=0;" vertex="1" parent="1">
          <mxGeometry x="1614.75" y="310" width="120" height="60" as="geometry" />
        </mxCell>
        <mxCell id="pJjKv-Byt6Ofe4KoQBYE-107" value="" style="endArrow=classic;html=1;rounded=0;exitX=0.5;exitY=0;exitDx=0;exitDy=0;entryX=0.5;entryY=1;entryDx=0;entryDy=0;" edge="1" parent="1" source="pJjKv-Byt6Ofe4KoQBYE-104" target="pJjKv-Byt6Ofe4KoQBYE-106">
          <mxGeometry width="50" height="50" relative="1" as="geometry">
            <mxPoint x="1585.25" y="440" as="sourcePoint" />
            <mxPoint x="1685.25" y="380" as="targetPoint" />
          </mxGeometry>
        </mxCell>
        <mxCell id="pJjKv-Byt6Ofe4KoQBYE-108" value="&lt;span style=&quot;color: rgb(0, 0, 0); font-family: Helvetica; font-size: 12px; font-style: normal; font-variant-ligatures: normal; font-variant-caps: normal; font-weight: 400; letter-spacing: normal; orphans: 2; text-align: left; text-indent: 0px; text-transform: none; widows: 2; word-spacing: 0px; -webkit-text-stroke-width: 0px; background-color: rgb(251, 251, 251); text-decoration-thickness: initial; text-decoration-style: initial; text-decoration-color: initial; float: none; display: inline !important;&quot;&gt;而 On 子句和 Where 子句的下推规则不同，其中 Inner Join 和 Where 子句相同，而其它 Join 需要满足如下条件：&lt;/span&gt;&lt;br style=&quot;border-color: var(--border-color); color: rgb(0, 0, 0); font-family: Helvetica; font-size: 12px; font-style: normal; font-variant-ligatures: normal; font-variant-caps: normal; font-weight: 400; letter-spacing: normal; orphans: 2; text-align: left; text-indent: 0px; text-transform: none; widows: 2; word-spacing: 0px; -webkit-text-stroke-width: 0px; background-color: rgb(251, 251, 251); text-decoration-thickness: initial; text-decoration-style: initial; text-decoration-color: initial;&quot;&gt;&lt;span style=&quot;orphans: 2; text-align: left; text-indent: 0px; widows: 2; background-color: rgb(251, 251, 251); text-decoration-thickness: initial; text-decoration-style: initial; text-decoration-color: initial; float: none; display: inline !important;&quot;&gt;A)&amp;nbsp;必须是 [Left/Right] Outer/Semi/Anti Join；B) 连接谓词只能绑定到 Right/Left 输入上，注意反向。&lt;br&gt;&lt;div style=&quot;&quot;&gt;SELECT * FROM&lt;/div&gt;&lt;div style=&quot;&quot;&gt;&amp;nbsp; &amp;nbsp; A LEFT OUTER JOIN B ON A.Key1 = B.Key1 AND A.Key1 = 1 AND B.Key1 = 2&lt;/div&gt;&lt;div style=&quot;&quot;&gt;&amp;nbsp; &amp;nbsp; &amp;nbsp; &amp;nbsp;LEFT OUTER JOIN C ON B.Key2 = C.Key2 And C.Key2 = 3&lt;br&gt;&lt;/div&gt;&lt;div style=&quot;color: rgb(0, 0, 0); font-family: Helvetica; font-size: 12px; font-style: normal; font-variant-ligatures: normal; font-variant-caps: normal; font-weight: 400; letter-spacing: normal; text-transform: none; word-spacing: 0px; -webkit-text-stroke-width: 0px;&quot;&gt;&lt;br&gt;&lt;/div&gt;&lt;/span&gt;" style="text;whiteSpace=wrap;html=1;" vertex="1" parent="1">
          <mxGeometry x="30" y="610" width="676" height="90" as="geometry" />
        </mxCell>
        <mxCell id="pJjKv-Byt6Ofe4KoQBYE-112" value="" style="rounded=1;whiteSpace=wrap;html=1;strokeColor=#b4a996;fillColor=#56a0d3;" vertex="1" parent="1">
          <mxGeometry x="198.5" y="775" width="210" height="60" as="geometry" />
        </mxCell>
        <mxCell id="pJjKv-Byt6Ofe4KoQBYE-113" value="&lt;font style=&quot;&quot;&gt;&lt;span style=&quot;font-size: 24px;&quot;&gt;Left Join&lt;br&gt;&lt;/span&gt;(B.Key2 = C.Key2 AND C.Key2 = 3)&lt;br&gt;&lt;/font&gt;" style="text;html=1;strokeColor=none;fillColor=none;align=center;verticalAlign=middle;whiteSpace=wrap;rounded=0;" vertex="1" parent="1">
          <mxGeometry x="203.5" y="775" width="200" height="60" as="geometry" />
        </mxCell>
        <mxCell id="pJjKv-Byt6Ofe4KoQBYE-114" value="" style="rounded=1;whiteSpace=wrap;html=1;strokeColor=#b4a996;fillColor=#56a0d3;" vertex="1" parent="1">
          <mxGeometry x="378.5" y="895" width="145" height="60" as="geometry" />
        </mxCell>
        <mxCell id="pJjKv-Byt6Ofe4KoQBYE-115" value="&lt;font style=&quot;&quot;&gt;&lt;span style=&quot;font-size: 24px;&quot;&gt;Table C&lt;/span&gt;&lt;br&gt;&lt;/font&gt;" style="text;html=1;strokeColor=none;fillColor=none;align=center;verticalAlign=middle;whiteSpace=wrap;rounded=0;" vertex="1" parent="1">
          <mxGeometry x="391" y="895" width="120" height="60" as="geometry" />
        </mxCell>
        <mxCell id="pJjKv-Byt6Ofe4KoQBYE-116" value="" style="endArrow=classic;html=1;rounded=0;exitX=0.5;exitY=0;exitDx=0;exitDy=0;entryX=0.5;entryY=1;entryDx=0;entryDy=0;" edge="1" parent="1" source="pJjKv-Byt6Ofe4KoQBYE-121" target="pJjKv-Byt6Ofe4KoQBYE-113">
          <mxGeometry width="50" height="50" relative="1" as="geometry">
            <mxPoint x="246" y="895" as="sourcePoint" />
            <mxPoint x="616" y="805" as="targetPoint" />
          </mxGeometry>
        </mxCell>
        <mxCell id="pJjKv-Byt6Ofe4KoQBYE-117" value="" style="endArrow=classic;html=1;rounded=0;exitX=0.5;exitY=0;exitDx=0;exitDy=0;entryX=0.5;entryY=1;entryDx=0;entryDy=0;" edge="1" parent="1" source="pJjKv-Byt6Ofe4KoQBYE-115" target="pJjKv-Byt6Ofe4KoQBYE-113">
          <mxGeometry width="50" height="50" relative="1" as="geometry">
            <mxPoint x="256" y="905" as="sourcePoint" />
            <mxPoint x="359" y="845" as="targetPoint" />
          </mxGeometry>
        </mxCell>
        <mxCell id="pJjKv-Byt6Ofe4KoQBYE-118" value="" style="endArrow=classic;html=1;rounded=0;exitX=0.5;exitY=0;exitDx=0;exitDy=0;" edge="1" parent="1" source="pJjKv-Byt6Ofe4KoQBYE-113">
          <mxGeometry width="50" height="50" relative="1" as="geometry">
            <mxPoint x="461" y="905" as="sourcePoint" />
            <mxPoint x="304" y="730" as="targetPoint" />
          </mxGeometry>
        </mxCell>
        <mxCell id="pJjKv-Byt6Ofe4KoQBYE-120" value="" style="rounded=1;whiteSpace=wrap;html=1;strokeColor=#b4a996;fillColor=#56a0d3;" vertex="1" parent="1">
          <mxGeometry x="31" y="895" width="307.5" height="60" as="geometry" />
        </mxCell>
        <mxCell id="pJjKv-Byt6Ofe4KoQBYE-121" value="&lt;font style=&quot;&quot;&gt;&lt;span style=&quot;font-size: 24px;&quot;&gt;Left Join&lt;br&gt;&lt;/span&gt;(A.Key1 = B.Key1 AND A.Key1 = 1 AND B.Key1 = 2)&lt;br&gt;&lt;/font&gt;" style="text;html=1;strokeColor=none;fillColor=none;align=center;verticalAlign=middle;whiteSpace=wrap;rounded=0;" vertex="1" parent="1">
          <mxGeometry x="42.25" y="895" width="285" height="60" as="geometry" />
        </mxCell>
        <mxCell id="pJjKv-Byt6Ofe4KoQBYE-122" value="" style="rounded=1;whiteSpace=wrap;html=1;strokeColor=#b4a996;fillColor=#56a0d3;" vertex="1" parent="1">
          <mxGeometry x="11" y="1015" width="145" height="60" as="geometry" />
        </mxCell>
        <mxCell id="pJjKv-Byt6Ofe4KoQBYE-123" value="&lt;font style=&quot;&quot;&gt;&lt;span style=&quot;font-size: 24px;&quot;&gt;Table A&lt;/span&gt;&lt;br&gt;&lt;/font&gt;" style="text;html=1;strokeColor=none;fillColor=none;align=center;verticalAlign=middle;whiteSpace=wrap;rounded=0;" vertex="1" parent="1">
          <mxGeometry x="23.5" y="1015" width="120" height="60" as="geometry" />
        </mxCell>
        <mxCell id="pJjKv-Byt6Ofe4KoQBYE-124" value="" style="rounded=1;whiteSpace=wrap;html=1;strokeColor=#b4a996;fillColor=#56a0d3;" vertex="1" parent="1">
          <mxGeometry x="206" y="1015" width="145" height="60" as="geometry" />
        </mxCell>
        <mxCell id="pJjKv-Byt6Ofe4KoQBYE-125" value="&lt;font style=&quot;&quot;&gt;&lt;span style=&quot;font-size: 24px;&quot;&gt;Table B&lt;/span&gt;&lt;br&gt;&lt;/font&gt;" style="text;html=1;strokeColor=none;fillColor=none;align=center;verticalAlign=middle;whiteSpace=wrap;rounded=0;" vertex="1" parent="1">
          <mxGeometry x="218.5" y="1015" width="120" height="60" as="geometry" />
        </mxCell>
        <mxCell id="pJjKv-Byt6Ofe4KoQBYE-126" value="" style="endArrow=classic;html=1;rounded=0;exitX=0.5;exitY=0;exitDx=0;exitDy=0;entryX=0.5;entryY=1;entryDx=0;entryDy=0;" edge="1" parent="1" source="pJjKv-Byt6Ofe4KoQBYE-123" target="pJjKv-Byt6Ofe4KoQBYE-121">
          <mxGeometry width="50" height="50" relative="1" as="geometry">
            <mxPoint x="463.5" y="975" as="sourcePoint" />
            <mxPoint x="513.5" y="925" as="targetPoint" />
          </mxGeometry>
        </mxCell>
        <mxCell id="pJjKv-Byt6Ofe4KoQBYE-127" value="" style="endArrow=classic;html=1;rounded=0;exitX=0.5;exitY=0;exitDx=0;exitDy=0;entryX=0.5;entryY=1;entryDx=0;entryDy=0;" edge="1" parent="1" source="pJjKv-Byt6Ofe4KoQBYE-125" target="pJjKv-Byt6Ofe4KoQBYE-121">
          <mxGeometry width="50" height="50" relative="1" as="geometry">
            <mxPoint x="153.5" y="1025" as="sourcePoint" />
            <mxPoint x="256.5" y="965" as="targetPoint" />
          </mxGeometry>
        </mxCell>
        <mxCell id="pJjKv-Byt6Ofe4KoQBYE-128" value="下推绑定到右表的连接谓词 C.Key2=3&lt;br&gt;注意 Left Outer Join 无法转换为 Inner Join" style="text;whiteSpace=wrap;html=1;align=center;" vertex="1" parent="1">
          <mxGeometry x="453.5" y="845" width="310" height="40" as="geometry" />
        </mxCell>
        <mxCell id="pJjKv-Byt6Ofe4KoQBYE-174" value="" style="rounded=1;whiteSpace=wrap;html=1;strokeColor=#b4a996;fillColor=#56a0d3;" vertex="1" parent="1">
          <mxGeometry x="857.25" y="785" width="210" height="60" as="geometry" />
        </mxCell>
        <mxCell id="pJjKv-Byt6Ofe4KoQBYE-175" value="&lt;font style=&quot;&quot;&gt;&lt;span style=&quot;font-size: 24px;&quot;&gt;Left Join&lt;br&gt;&lt;/span&gt;(B.Key2 = C.Key2)&lt;br&gt;&lt;/font&gt;" style="text;html=1;strokeColor=none;fillColor=none;align=center;verticalAlign=middle;whiteSpace=wrap;rounded=0;" vertex="1" parent="1">
          <mxGeometry x="862.25" y="785" width="200" height="60" as="geometry" />
        </mxCell>
        <mxCell id="pJjKv-Byt6Ofe4KoQBYE-176" value="" style="rounded=1;whiteSpace=wrap;html=1;strokeColor=#b4a996;fillColor=#56a0d3;" vertex="1" parent="1">
          <mxGeometry x="1086.25" y="1000" width="145" height="60" as="geometry" />
        </mxCell>
        <mxCell id="pJjKv-Byt6Ofe4KoQBYE-177" value="&lt;font style=&quot;&quot;&gt;&lt;span style=&quot;font-size: 24px;&quot;&gt;Table C&lt;/span&gt;&lt;br&gt;&lt;/font&gt;" style="text;html=1;strokeColor=none;fillColor=none;align=center;verticalAlign=middle;whiteSpace=wrap;rounded=0;" vertex="1" parent="1">
          <mxGeometry x="1098.75" y="1000" width="120" height="60" as="geometry" />
        </mxCell>
        <mxCell id="pJjKv-Byt6Ofe4KoQBYE-178" value="" style="endArrow=classic;html=1;rounded=0;exitX=0.5;exitY=0;exitDx=0;exitDy=0;entryX=0.5;entryY=1;entryDx=0;entryDy=0;" edge="1" parent="1" source="pJjKv-Byt6Ofe4KoQBYE-182" target="pJjKv-Byt6Ofe4KoQBYE-175">
          <mxGeometry width="50" height="50" relative="1" as="geometry">
            <mxPoint x="904.75" y="905" as="sourcePoint" />
            <mxPoint x="1274.75" y="815" as="targetPoint" />
          </mxGeometry>
        </mxCell>
        <mxCell id="pJjKv-Byt6Ofe4KoQBYE-179" value="" style="endArrow=classic;html=1;rounded=0;exitX=0.5;exitY=0;exitDx=0;exitDy=0;entryX=0.5;entryY=1;entryDx=0;entryDy=0;" edge="1" parent="1" source="pJjKv-Byt6Ofe4KoQBYE-190" target="pJjKv-Byt6Ofe4KoQBYE-175">
          <mxGeometry width="50" height="50" relative="1" as="geometry">
            <mxPoint x="914.75" y="915" as="sourcePoint" />
            <mxPoint x="1017.75" y="855" as="targetPoint" />
          </mxGeometry>
        </mxCell>
        <mxCell id="pJjKv-Byt6Ofe4KoQBYE-180" value="" style="endArrow=classic;html=1;rounded=0;exitX=0.5;exitY=0;exitDx=0;exitDy=0;" edge="1" parent="1" source="pJjKv-Byt6Ofe4KoQBYE-175">
          <mxGeometry width="50" height="50" relative="1" as="geometry">
            <mxPoint x="1119.75" y="915" as="sourcePoint" />
            <mxPoint x="962.75" y="740" as="targetPoint" />
          </mxGeometry>
        </mxCell>
        <mxCell id="pJjKv-Byt6Ofe4KoQBYE-181" value="" style="rounded=1;whiteSpace=wrap;html=1;strokeColor=#b4a996;fillColor=#56a0d3;" vertex="1" parent="1">
          <mxGeometry x="689.75" y="905" width="307.5" height="60" as="geometry" />
        </mxCell>
        <mxCell id="pJjKv-Byt6Ofe4KoQBYE-182" value="&lt;font style=&quot;&quot;&gt;&lt;span style=&quot;font-size: 24px;&quot;&gt;Left Join&lt;br&gt;&lt;/span&gt;(A.Key1 = B.Key1 AND A.Key1 = 1 AND B.Key1 = 2)&lt;br&gt;&lt;/font&gt;" style="text;html=1;strokeColor=none;fillColor=none;align=center;verticalAlign=middle;whiteSpace=wrap;rounded=0;" vertex="1" parent="1">
          <mxGeometry x="701" y="905" width="285" height="60" as="geometry" />
        </mxCell>
        <mxCell id="pJjKv-Byt6Ofe4KoQBYE-183" value="" style="rounded=1;whiteSpace=wrap;html=1;strokeColor=#b4a996;fillColor=#56a0d3;" vertex="1" parent="1">
          <mxGeometry x="669.75" y="1025" width="145" height="60" as="geometry" />
        </mxCell>
        <mxCell id="pJjKv-Byt6Ofe4KoQBYE-184" value="&lt;font style=&quot;&quot;&gt;&lt;span style=&quot;font-size: 24px;&quot;&gt;Table A&lt;/span&gt;&lt;br&gt;&lt;/font&gt;" style="text;html=1;strokeColor=none;fillColor=none;align=center;verticalAlign=middle;whiteSpace=wrap;rounded=0;" vertex="1" parent="1">
          <mxGeometry x="682.25" y="1025" width="120" height="60" as="geometry" />
        </mxCell>
        <mxCell id="pJjKv-Byt6Ofe4KoQBYE-185" value="" style="rounded=1;whiteSpace=wrap;html=1;strokeColor=#b4a996;fillColor=#56a0d3;" vertex="1" parent="1">
          <mxGeometry x="864.75" y="1025" width="145" height="60" as="geometry" />
        </mxCell>
        <mxCell id="pJjKv-Byt6Ofe4KoQBYE-186" value="&lt;font style=&quot;&quot;&gt;&lt;span style=&quot;font-size: 24px;&quot;&gt;Table B&lt;/span&gt;&lt;br&gt;&lt;/font&gt;" style="text;html=1;strokeColor=none;fillColor=none;align=center;verticalAlign=middle;whiteSpace=wrap;rounded=0;" vertex="1" parent="1">
          <mxGeometry x="877.25" y="1025" width="120" height="60" as="geometry" />
        </mxCell>
        <mxCell id="pJjKv-Byt6Ofe4KoQBYE-187" value="" style="endArrow=classic;html=1;rounded=0;exitX=0.5;exitY=0;exitDx=0;exitDy=0;entryX=0.5;entryY=1;entryDx=0;entryDy=0;" edge="1" parent="1" source="pJjKv-Byt6Ofe4KoQBYE-184" target="pJjKv-Byt6Ofe4KoQBYE-182">
          <mxGeometry width="50" height="50" relative="1" as="geometry">
            <mxPoint x="1122.25" y="985" as="sourcePoint" />
            <mxPoint x="1172.25" y="935" as="targetPoint" />
          </mxGeometry>
        </mxCell>
        <mxCell id="pJjKv-Byt6Ofe4KoQBYE-188" value="" style="endArrow=classic;html=1;rounded=0;exitX=0.5;exitY=0;exitDx=0;exitDy=0;entryX=0.5;entryY=1;entryDx=0;entryDy=0;" edge="1" parent="1" source="pJjKv-Byt6Ofe4KoQBYE-186" target="pJjKv-Byt6Ofe4KoQBYE-182">
          <mxGeometry width="50" height="50" relative="1" as="geometry">
            <mxPoint x="812.25" y="1035" as="sourcePoint" />
            <mxPoint x="915.25" y="975" as="targetPoint" />
          </mxGeometry>
        </mxCell>
        <mxCell id="pJjKv-Byt6Ofe4KoQBYE-189" value="" style="rounded=1;whiteSpace=wrap;html=1;strokeColor=#b4a996;fillColor=#c4dff6;" vertex="1" parent="1">
          <mxGeometry x="1080" y="905" width="157.5" height="60" as="geometry" />
        </mxCell>
        <mxCell id="pJjKv-Byt6Ofe4KoQBYE-190" value="&lt;font style=&quot;&quot;&gt;&lt;span style=&quot;font-size: 24px;&quot;&gt;Filter&lt;br&gt;&lt;/span&gt;(C.Key2=3)&lt;br&gt;&lt;/font&gt;" style="text;html=1;strokeColor=none;fillColor=none;align=center;verticalAlign=middle;whiteSpace=wrap;rounded=0;" vertex="1" parent="1">
          <mxGeometry x="1083.75" y="905" width="150" height="60" as="geometry" />
        </mxCell>
        <mxCell id="pJjKv-Byt6Ofe4KoQBYE-191" value="" style="endArrow=classic;html=1;rounded=0;exitX=0.5;exitY=0;exitDx=0;exitDy=0;entryX=0.5;entryY=1;entryDx=0;entryDy=0;" edge="1" parent="1" source="pJjKv-Byt6Ofe4KoQBYE-177" target="pJjKv-Byt6Ofe4KoQBYE-190">
          <mxGeometry width="50" height="50" relative="1" as="geometry">
            <mxPoint x="1169" y="915" as="sourcePoint" />
            <mxPoint x="972" y="855" as="targetPoint" />
          </mxGeometry>
        </mxCell>
        <mxCell id="pJjKv-Byt6Ofe4KoQBYE-192" value="" style="rounded=1;whiteSpace=wrap;html=1;strokeColor=#b4a996;fillColor=#C4DFF6;" vertex="1" parent="1">
          <mxGeometry x="1657.5" y="737.5" width="210" height="60" as="geometry" />
        </mxCell>
        <mxCell id="pJjKv-Byt6Ofe4KoQBYE-193" value="&lt;font style=&quot;&quot;&gt;&lt;span style=&quot;font-size: 24px;&quot;&gt;Left Join&lt;br&gt;&lt;/span&gt;(B.Key2 = C.Key2)&lt;br&gt;&lt;/font&gt;" style="text;html=1;strokeColor=none;fillColor=none;align=center;verticalAlign=middle;whiteSpace=wrap;rounded=0;" vertex="1" parent="1">
          <mxGeometry x="1681.63" y="737.5" width="161.75" height="60" as="geometry" />
        </mxCell>
        <mxCell id="pJjKv-Byt6Ofe4KoQBYE-194" value="" style="rounded=1;whiteSpace=wrap;html=1;strokeColor=#b4a996;fillColor=#56a0d3;" vertex="1" parent="1">
          <mxGeometry x="1886.5" y="952.5" width="145" height="60" as="geometry" />
        </mxCell>
        <mxCell id="pJjKv-Byt6Ofe4KoQBYE-195" value="&lt;font style=&quot;&quot;&gt;&lt;span style=&quot;font-size: 24px;&quot;&gt;Table C&lt;/span&gt;&lt;br&gt;&lt;/font&gt;" style="text;html=1;strokeColor=none;fillColor=none;align=center;verticalAlign=middle;whiteSpace=wrap;rounded=0;" vertex="1" parent="1">
          <mxGeometry x="1899" y="952.5" width="120" height="60" as="geometry" />
        </mxCell>
        <mxCell id="pJjKv-Byt6Ofe4KoQBYE-196" value="" style="endArrow=classic;html=1;rounded=0;exitX=0.5;exitY=0;exitDx=0;exitDy=0;entryX=0.5;entryY=1;entryDx=0;entryDy=0;" edge="1" parent="1" source="pJjKv-Byt6Ofe4KoQBYE-200" target="pJjKv-Byt6Ofe4KoQBYE-193">
          <mxGeometry width="50" height="50" relative="1" as="geometry">
            <mxPoint x="1705" y="857.5" as="sourcePoint" />
            <mxPoint x="2075" y="767.5" as="targetPoint" />
          </mxGeometry>
        </mxCell>
        <mxCell id="pJjKv-Byt6Ofe4KoQBYE-197" value="" style="endArrow=classic;html=1;rounded=0;exitX=0.5;exitY=0;exitDx=0;exitDy=0;entryX=0.5;entryY=1;entryDx=0;entryDy=0;" edge="1" parent="1" source="pJjKv-Byt6Ofe4KoQBYE-208" target="pJjKv-Byt6Ofe4KoQBYE-193">
          <mxGeometry width="50" height="50" relative="1" as="geometry">
            <mxPoint x="1715" y="867.5" as="sourcePoint" />
            <mxPoint x="1818" y="807.5" as="targetPoint" />
          </mxGeometry>
        </mxCell>
        <mxCell id="pJjKv-Byt6Ofe4KoQBYE-198" value="" style="endArrow=classic;html=1;rounded=0;exitX=0.5;exitY=0;exitDx=0;exitDy=0;" edge="1" parent="1" source="pJjKv-Byt6Ofe4KoQBYE-193">
          <mxGeometry width="50" height="50" relative="1" as="geometry">
            <mxPoint x="1920" y="867.5" as="sourcePoint" />
            <mxPoint x="1763" y="692.5" as="targetPoint" />
          </mxGeometry>
        </mxCell>
        <mxCell id="pJjKv-Byt6Ofe4KoQBYE-199" value="" style="rounded=1;whiteSpace=wrap;html=1;strokeColor=#b4a996;fillColor=#C4DFF6;" vertex="1" parent="1">
          <mxGeometry x="1490" y="857.5" width="307.5" height="60" as="geometry" />
        </mxCell>
        <mxCell id="pJjKv-Byt6Ofe4KoQBYE-200" value="&lt;font style=&quot;&quot;&gt;&lt;span style=&quot;font-size: 24px;&quot;&gt;Left Join&lt;br&gt;&lt;/span&gt;(A.Key1 = B.Key1 AND A.Key1 = 1)&lt;br&gt;&lt;/font&gt;" style="text;html=1;strokeColor=none;fillColor=none;align=center;verticalAlign=middle;whiteSpace=wrap;rounded=0;" vertex="1" parent="1">
          <mxGeometry x="1501.25" y="857.5" width="285" height="60" as="geometry" />
        </mxCell>
        <mxCell id="pJjKv-Byt6Ofe4KoQBYE-201" value="" style="rounded=1;whiteSpace=wrap;html=1;strokeColor=#b4a996;fillColor=#56a0d3;" vertex="1" parent="1">
          <mxGeometry x="1470" y="977.5" width="145" height="60" as="geometry" />
        </mxCell>
        <mxCell id="pJjKv-Byt6Ofe4KoQBYE-202" value="&lt;font style=&quot;&quot;&gt;&lt;span style=&quot;font-size: 24px;&quot;&gt;Table A&lt;/span&gt;&lt;br&gt;&lt;/font&gt;" style="text;html=1;strokeColor=none;fillColor=none;align=center;verticalAlign=middle;whiteSpace=wrap;rounded=0;" vertex="1" parent="1">
          <mxGeometry x="1482.5" y="977.5" width="120" height="60" as="geometry" />
        </mxCell>
        <mxCell id="pJjKv-Byt6Ofe4KoQBYE-203" value="" style="rounded=1;whiteSpace=wrap;html=1;strokeColor=#b4a996;fillColor=#56a0d3;" vertex="1" parent="1">
          <mxGeometry x="1680" y="1070" width="145" height="60" as="geometry" />
        </mxCell>
        <mxCell id="pJjKv-Byt6Ofe4KoQBYE-204" value="&lt;font style=&quot;&quot;&gt;&lt;span style=&quot;font-size: 24px;&quot;&gt;Table B&lt;/span&gt;&lt;br&gt;&lt;/font&gt;" style="text;html=1;strokeColor=none;fillColor=none;align=center;verticalAlign=middle;whiteSpace=wrap;rounded=0;" vertex="1" parent="1">
          <mxGeometry x="1692.5" y="1070" width="120" height="60" as="geometry" />
        </mxCell>
        <mxCell id="pJjKv-Byt6Ofe4KoQBYE-205" value="" style="endArrow=classic;html=1;rounded=0;exitX=0.5;exitY=0;exitDx=0;exitDy=0;entryX=0.5;entryY=1;entryDx=0;entryDy=0;" edge="1" parent="1" source="pJjKv-Byt6Ofe4KoQBYE-202" target="pJjKv-Byt6Ofe4KoQBYE-200">
          <mxGeometry width="50" height="50" relative="1" as="geometry">
            <mxPoint x="1922.5" y="937.5" as="sourcePoint" />
            <mxPoint x="1972.5" y="887.5" as="targetPoint" />
          </mxGeometry>
        </mxCell>
        <mxCell id="pJjKv-Byt6Ofe4KoQBYE-206" value="" style="endArrow=classic;html=1;rounded=0;exitX=0.5;exitY=0;exitDx=0;exitDy=0;entryX=0.5;entryY=1;entryDx=0;entryDy=0;" edge="1" parent="1" source="pJjKv-Byt6Ofe4KoQBYE-204" target="pJjKv-Byt6Ofe4KoQBYE-212">
          <mxGeometry width="50" height="50" relative="1" as="geometry">
            <mxPoint x="1612.5" y="987.5" as="sourcePoint" />
            <mxPoint x="1715.5" y="927.5" as="targetPoint" />
          </mxGeometry>
        </mxCell>
        <mxCell id="pJjKv-Byt6Ofe4KoQBYE-207" value="" style="rounded=1;whiteSpace=wrap;html=1;strokeColor=#b4a996;fillColor=#c4dff6;" vertex="1" parent="1">
          <mxGeometry x="1880.25" y="857.5" width="157.5" height="60" as="geometry" />
        </mxCell>
        <mxCell id="pJjKv-Byt6Ofe4KoQBYE-208" value="&lt;font style=&quot;&quot;&gt;&lt;span style=&quot;font-size: 24px;&quot;&gt;Filter&lt;br&gt;&lt;/span&gt;(C.Key2=3)&lt;br&gt;&lt;/font&gt;" style="text;html=1;strokeColor=none;fillColor=none;align=center;verticalAlign=middle;whiteSpace=wrap;rounded=0;" vertex="1" parent="1">
          <mxGeometry x="1899.25" y="857.5" width="119.75" height="60" as="geometry" />
        </mxCell>
        <mxCell id="pJjKv-Byt6Ofe4KoQBYE-209" value="" style="endArrow=classic;html=1;rounded=0;exitX=0.5;exitY=0;exitDx=0;exitDy=0;entryX=0.5;entryY=1;entryDx=0;entryDy=0;" edge="1" parent="1" source="pJjKv-Byt6Ofe4KoQBYE-195" target="pJjKv-Byt6Ofe4KoQBYE-208">
          <mxGeometry width="50" height="50" relative="1" as="geometry">
            <mxPoint x="1969.25" y="867.5" as="sourcePoint" />
            <mxPoint x="1772.25" y="807.5" as="targetPoint" />
          </mxGeometry>
        </mxCell>
        <mxCell id="pJjKv-Byt6Ofe4KoQBYE-210" value="同样下推绑定到右表的连接谓词 B.Key1=2&lt;br&gt;其中 A.Key1=1是绑定到左表的，下推会过滤A的数据，与语义不符，无法下推" style="text;whiteSpace=wrap;html=1;align=center;" vertex="1" parent="1">
          <mxGeometry x="1206" y="820" width="262.25" height="55" as="geometry" />
        </mxCell>
        <mxCell id="pJjKv-Byt6Ofe4KoQBYE-211" value="" style="rounded=1;whiteSpace=wrap;html=1;strokeColor=#b4a996;fillColor=#c4dff6;" vertex="1" parent="1">
          <mxGeometry x="1673.75" y="977.5" width="157.5" height="60" as="geometry" />
        </mxCell>
        <mxCell id="pJjKv-Byt6Ofe4KoQBYE-212" value="&lt;font style=&quot;&quot;&gt;&lt;span style=&quot;font-size: 24px;&quot;&gt;Filter&lt;br&gt;&lt;/span&gt;(B.Key1=2)&lt;br&gt;&lt;/font&gt;" style="text;html=1;strokeColor=none;fillColor=none;align=center;verticalAlign=middle;whiteSpace=wrap;rounded=0;" vertex="1" parent="1">
          <mxGeometry x="1692.75" y="977.5" width="119.75" height="60" as="geometry" />
        </mxCell>
        <mxCell id="pJjKv-Byt6Ofe4KoQBYE-213" value="" style="endArrow=classic;html=1;rounded=0;exitX=0.5;exitY=0;exitDx=0;exitDy=0;entryX=0.5;entryY=1;entryDx=0;entryDy=0;" edge="1" parent="1" source="pJjKv-Byt6Ofe4KoQBYE-212" target="pJjKv-Byt6Ofe4KoQBYE-200">
          <mxGeometry width="50" height="50" relative="1" as="geometry">
            <mxPoint x="1553" y="988" as="sourcePoint" />
            <mxPoint x="1654" y="928" as="targetPoint" />
          </mxGeometry>
        </mxCell>
      </root>
    </mxGraphModel>
  </diagram>
</mxfile>
